<svg xmlns="http://www.w3.org/2000/svg"  viewBox="0 0 64 64" width="64px" height="64px"><path fill="#ced9ed" d="M32,63c0,0,13-15,30-21C56,29,39,6,32,1C25,6,8,29,2,42C19,48,32,63,32,63z"/><path fill="#85cbf8" d="M32.006,8.373c-6.233,6.44-16.434,20.224-22.381,30.841c9.815,4.67,17.813,11.485,22.381,15.884H32 c4.568-4.398,12.565-11.214,22.381-15.884C48.434,28.597,38.233,14.813,32,8.373"/><path fill="#ace3ff" d="M45,36.7c-5.03,3.06-9.43,6.48-13,9.62c-0.42-0.37-0.86-0.75-1.31-1.13 c-0.71-0.6-1.44-1.21-2.21-1.82c-0.66-0.53-1.34-1.06-2.04-1.59c-1.55-1.18-3.19-2.35-4.92-3.48c-0.82-0.54-1.66-1.08-2.52-1.6 c4.02-6.52,8.9-13.36,13-18.48c0.77,0.97,1.58,1.99,2.4,3.07c1.21,1.6,2.47,3.31,3.73,5.08c0.52,0.73,1.04,1.47,1.55,2.22 c0.57,0.82,1.14,1.65,1.7,2.49C42.63,32.95,43.85,34.84,45,36.7z"/><path fill="#e3f2ff" d="M41.38 31.08L30.69 45.19c-.71-.6-1.44-1.21-2.21-1.82l11.2-14.78C40.25 29.41 40.82 30.24 41.38 31.08zM38.13 26.37L26.44 41.78c-1.55-1.18-3.19-2.35-4.92-3.48L34.4 21.29C35.61 22.89 36.87 24.6 38.13 26.37z"/><path fill="#fff8f8" d="M37.495 38L36.965 37.025 36 36.495 36.965 35.975 37.495 35 38.025 35.975 39 36.495 38.025 37.025zM29.5 31L28.622 29.388 27 28.5 28.622 27.622 29.5 26 30.388 27.622 32 28.5 30.388 29.388z"/><path fill="#e3f2ff" d="M32.003,8.376c-6.233,6.441-16.43,20.22-22.377,30.836L19,36.702c4.021-6.521,8.899-13.36,13-18.485 L32.003,8.376z"/><path fill="#9fddff" d="M32,18.217c4.101,5.125,8.979,11.965,13,18.485l0,0l9.381,2.512l0,0 C48.435,28.598,38.237,14.818,32.003,8.376L32,18.217z"/><path fill="#8d6c9f" d="M31 46.319H33V55H31zM31 9H33V18.875H31z"/><path fill="#8d6c9f" d="M9.454 36.958H19.165V38.958H9.454z" transform="rotate(-14.999 14.31 37.96)"/><path fill="#8d6c9f" d="M48.691 33.102H50.691V42.812999999999995H48.691z" transform="rotate(-75.013 49.688 37.957)"/><path fill="#8d6c9f" d="M32.006,56.098c-0.283,0-0.549-0.12-0.735-0.32C26.417,51.11,18.66,44.62,9.195,40.117 c-0.25-0.119-0.439-0.336-0.523-0.601c-0.084-0.264-0.055-0.55,0.081-0.791c5.674-10.13,15.734-23.998,22.467-30.978 c0.025-0.032,0.054-0.063,0.085-0.094C31.499,7.467,31.749,7.373,32,7.373c0.002,0,0.004,0,0.006,0c0.251,0,0.501,0.094,0.695,0.281 c0.031,0.03,0.06,0.062,0.085,0.094c6.732,6.979,16.793,20.848,22.467,30.978c0.136,0.241,0.165,0.527,0.081,0.791 c-0.084,0.265-0.273,0.481-0.523,0.601c-9.447,4.495-17.194,10.97-22.049,15.636C32.575,55.968,32.301,56.098,32.006,56.098z M11.021,38.78c8.856,4.386,16.167,10.385,20.982,14.933c4.815-4.548,12.126-10.547,20.982-14.933 C47.087,28.491,37.74,15.984,32.003,9.829C26.266,15.984,16.919,28.491,11.021,38.78z"/><path fill="#8d6c9f" d="M32,47.319c-0.235,0-0.471-0.083-0.66-0.248c-4.17-3.661-8.496-6.862-12.859-9.515 c-0.228-0.139-0.391-0.361-0.453-0.621c-0.062-0.259-0.019-0.531,0.121-0.758c3.787-6.142,8.673-13.09,13.07-18.586 c0.381-0.475,1.182-0.475,1.563,0c4.397,5.496,9.283,12.444,13.07,18.586c0.14,0.227,0.183,0.499,0.121,0.758 c-0.063,0.26-0.226,0.482-0.453,0.621c-4.363,2.652-8.689,5.854-12.859,9.515C32.471,47.236,32.235,47.319,32,47.319z M20.379,36.377c3.94,2.462,7.843,5.355,11.621,8.616c3.778-3.261,7.681-6.154,11.621-8.616C40.184,30.882,35.936,24.833,32,19.826 C28.064,24.833,23.816,30.882,20.379,36.377z"/><path fill="#8d6c9f" d="M32 64c-.29 0-.565-.126-.756-.345C31.116 63.507 18.21 48.782 1.667 42.943c-.266-.094-.479-.295-.588-.555-.109-.259-.105-.552.013-.808C7.06 28.65 24.065 5.438 31.419.187c.348-.248.814-.248 1.162 0C39.935 5.438 56.94 28.65 62.908 41.581c.118.256.122.549.013.808-.109.26-.322.461-.588.555C45.79 48.782 32.884 63.507 32.756 63.655 32.565 63.874 32.29 64 32 64zM3.374 41.437C17.807 46.878 29.031 58.291 32 61.506c2.969-3.215 14.193-14.628 28.626-20.069C54.65 29.137 39.13 7.896 32 2.252 24.87 7.896 9.35 29.137 3.374 41.437zM59.667 51.586c-.37.037-.746-.135-.953-.474l-1.042-1.707c-.288-.471-.139-1.086.333-1.374.472-.286 1.088-.139 1.374.333l1.042 1.707c.288.471.139 1.086-.333 1.374C59.956 51.525 59.812 51.571 59.667 51.586zM55.216 53.965c-.341.025-.685-.125-.895-.425l-1.144-1.64c-.315-.454-.204-1.077.248-1.393.453-.316 1.076-.204 1.393.248l1.144 1.64c.315.454.204 1.077-.248 1.393C55.561 53.895 55.389 53.953 55.216 53.965zM50.962 56.691c-.316.016-.634-.117-.843-.385l-1.228-1.58c-.339-.436-.26-1.064.176-1.403.436-.34 1.064-.261 1.403.176l1.228 1.58c.339.436.26 1.064-.176 1.403C51.355 56.612 51.159 56.681 50.962 56.691zM46.887 59.709c-.295.008-.59-.114-.794-.357l-1.285-1.533c-.355-.423-.299-1.054.124-1.409.422-.355 1.054-.298 1.409.124l1.285 1.533c.355.423.299 1.054-.124 1.409C47.323 59.626 47.105 59.703 46.887 59.709zM42.965 62.977c-.274-.005-.546-.122-.74-.347l-1.306-1.514c-.36-.418-.314-1.049.104-1.411.416-.359 1.048-.315 1.411.104l1.306 1.514c.36.418.314 1.049-.104 1.411C43.442 62.901 43.203 62.981 42.965 62.977z"/></svg>